HIERARCHY
ROOT Root
{
  OFFSET 0.0 0.0 0.0
  CHANNELS 6 Xposition Yposition Zposition Zrotation Yrotation Xrotation
  JOINT Hips
  {
    OFFSET 0.0 100.0 0.0
    CHANNELS 6 Xposition Yposition Zposition Zrotation Yrotation Xrotation
    JOINT Spine1
    {
      OFFSET 5.003913 -0.037094 -0.013727
      CHANNELS 3 Zrotation Yrotation Xrotation
      JOINT Spine2
      {
        OFFSET 7.125363 -1e-06 0.0
        CHANNELS 3 Zrotation Yrotation Xrotation
        JOINT Chest
        {
          OFFSET 7.594027 1e-06 0.0
          CHANNELS 3 Zrotation Yrotation Xrotation
          JOINT Neck1
          {
            OFFSET 26.313086 -0.460272 -0.181672
            CHANNELS 3 Zrotation Yrotation Xrotation
            JOINT Neck2
            {
              OFFSET 8.045911 0.0 0.0
              CHANNELS 3 Zrotation Yrotation Xrotation
              JOINT Head
              {
                OFFSET 6.432774 0.0 0.0
                CHANNELS 3 Zrotation Yrotation Xrotation
                JOINT HeadEnd
                {
                  OFFSET 16.169773 0.06451 0.00362
                  CHANNELS 3 Zrotation Yrotation Xrotation
                }
                JOINT Jaw
                {
                  OFFSET 0.108741 3.12938 0.002639
                  CHANNELS 3 Zrotation Yrotation Xrotation
                }
                JOINT LeftEye
                {
                  OFFSET 4.45173 8.166359 3.206392
                  CHANNELS 3 Zrotation Yrotation Xrotation
                }
                JOINT RightEye
                {
                  OFFSET 4.436895 8.135758 -3.222429
                  CHANNELS 3 Zrotation Yrotation Xrotation
                }
              }
            }
          }
          JOINT LeftShoulder
          {
            OFFSET 23.218927 5.195579 1.621656
            CHANNELS 3 Zrotation Yrotation Xrotation
            JOINT LeftArm
            {
              OFFSET 15.902118 2e-06 -2e-06
              CHANNELS 3 Zrotation Yrotation Xrotation
              JOINT LeftForeArm
              {
                OFFSET 28.739307 0.0 -1e-06
                CHANNELS 3 Zrotation Yrotation Xrotation
                JOINT LeftHand
                {
                  OFFSET 27.093981 -4e-06 0.0
                  CHANNELS 3 Zrotation Yrotation Xrotation
                  JOINT LeftHandThumb1
                  {
                    OFFSET 2.276781 3.380274 0.83384
                    CHANNELS 3 Zrotation Yrotation Xrotation
                    JOINT LeftHandThumb2
                    {
                      OFFSET 4.705309 -1e-06 -1e-06
                      CHANNELS 3 Zrotation Yrotation Xrotation
                      JOINT LeftHandThumb3
                      {
                        OFFSET 2.798515 0.0 3e-06
                        CHANNELS 3 Zrotation Yrotation Xrotation
                        JOINT LeftHandThumbEnd
                        {
                          OFFSET 3.180793 4e-06 -4e-06
                          CHANNELS 3 Zrotation Yrotation Xrotation
                        }
                      }
                    }
                  }
                  JOINT LeftHandIndex1
                  {
                    OFFSET 3.247786 2.352677 0.137192
                    CHANNELS 3 Zrotation Yrotation Xrotation
                    JOINT LeftHandIndex2
                    {
                      OFFSET 6.367095 1e-06 0.0
                      CHANNELS 3 Zrotation Yrotation Xrotation
                      JOINT LeftHandIndex3
                      {
                        OFFSET 3.662364 0.0 0.0
                        CHANNELS 3 Zrotation Yrotation Xrotation
                        JOINT LeftHandIndex4
                        {
                          OFFSET 2.329242 4e-06 -4e-06
                          CHANNELS 3 Zrotation Yrotation Xrotation
                          JOINT LeftHandIndexEnd
                          {
                            OFFSET 2.767823 1e-06 0.0
                            CHANNELS 3 Zrotation Yrotation Xrotation
                          }
                        }
                      }
                    }
                  }
                  JOINT LeftHandMiddle1
                  {
                    OFFSET 3.163612 0.945023 -0.406112
                    CHANNELS 3 Zrotation Yrotation Xrotation
                    JOINT LeftHandMiddle2
                    {
                      OFFSET 6.276789 3e-06 0.0
                      CHANNELS 3 Zrotation Yrotation Xrotation
                      JOINT LeftHandMiddle3
                      {
                        OFFSET 4.35652 -1e-06 4e-06
                        CHANNELS 3 Zrotation Yrotation Xrotation
                        JOINT LeftHandMiddle4
                        {
                          OFFSET 2.996877 0.0 8e-06
                          CHANNELS 3 Zrotation Yrotation Xrotation
                          JOINT LeftHandMiddleEnd
                          {
                            OFFSET 2.323256 3e-06 -4e-06
                            CHANNELS 3 Zrotation Yrotation Xrotation
                          }
                        }
                      }
                    }
                  }
                  JOINT LeftHandRing1
                  {
                    OFFSET 2.882606 -0.309162 0.107445
                    CHANNELS 3 Zrotation Yrotation Xrotation
                    JOINT LeftHandRing2
                    {
                      OFFSET 6.033198 0.0 4e-06
                      CHANNELS 3 Zrotation Yrotation Xrotation
                      JOINT LeftHandRing3
                      {
                        OFFSET 4.350578 3e-06 0.0
                        CHANNELS 3 Zrotation Yrotation Xrotation
                        JOINT LeftHandRing4
                        {
                          OFFSET 2.651321 2e-06 -7e-06
                          CHANNELS 3 Zrotation Yrotation Xrotation
                          JOINT LeftHandRingEnd
                          {
                            OFFSET 1.937663 1e-06 -4e-06
                            CHANNELS 3 Zrotation Yrotation Xrotation
                          }
                        }
                      }
                    }
                  }
                  JOINT LeftHandPinky1
                  {
                    OFFSET 2.865315 -1.525436 0.575687
                    CHANNELS 3 Zrotation Yrotation Xrotation
                    JOINT LeftHandPinky2
                    {
                      OFFSET 5.54936 1e-06 -8e-06
                      CHANNELS 3 Zrotation Yrotation Xrotation
                      JOINT LeftHandPinky3
                      {
                        OFFSET 3.070974 0.0 -4e-06
                        CHANNELS 3 Zrotation Yrotation Xrotation
                        JOINT LeftHandPinky4
                        {
                          OFFSET 1.549672 1e-06 0.0
                          CHANNELS 3 Zrotation Yrotation Xrotation
                          JOINT LeftHandPinkyEnd
                          {
                            OFFSET 1.952123 0.0 0.0
                            CHANNELS 3 Zrotation Yrotation Xrotation
                          }
                        }
                      }
                    }
                  }
                }
              }
            }
          }
          JOINT RightShoulder
          {
            OFFSET 23.161716 5.296122 -1.380114
            CHANNELS 3 Zrotation Yrotation Xrotation
            JOINT RightArm
            {
              OFFSET -16.027195 -2e-06 1.1e-05
              CHANNELS 3 Zrotation Yrotation Xrotation
              JOINT RightForeArm
              {
                OFFSET -28.736639 4e-06 2e-06
                CHANNELS 3 Zrotation Yrotation Xrotation
                JOINT RightHand
                {
                  OFFSET -27.133619 6e-06 0.0
                  CHANNELS 3 Zrotation Yrotation Xrotation
                  JOINT RightHandThumb1
                  {
                    OFFSET -2.274328 -3.351035 -0.83067
                    CHANNELS 3 Zrotation Yrotation Xrotation
                    JOINT RightHandThumb2
                    {
                      OFFSET -4.703594 -3e-06 2e-06
                      CHANNELS 3 Zrotation Yrotation Xrotation
                      JOINT RightHandThumb3
                      {
                        OFFSET -2.794935 -4e-06 -3e-06
                        CHANNELS 3 Zrotation Yrotation Xrotation
                        JOINT RightHandThumbEnd
                        {
                          OFFSET -3.183852 4e-06 1e-06
                          CHANNELS 3 Zrotation Yrotation Xrotation
                        }
                      }
                    }
                  }
                  JOINT RightHandIndex1
                  {
                    OFFSET -3.253496 -2.33755 -0.127667
                    CHANNELS 3 Zrotation Yrotation Xrotation
                    JOINT RightHandIndex2
                    {
                      OFFSET -6.344434 0.0 0.0
                      CHANNELS 3 Zrotation Yrotation Xrotation
                      JOINT RightHandIndex3
                      {
                        OFFSET -3.654871 0.0 -8e-06
                        CHANNELS 3 Zrotation Yrotation Xrotation
                        JOINT RightHandIndex4
                        {
                          OFFSET -2.327586 -1e-06 0.0
                          CHANNELS 3 Zrotation Yrotation Xrotation
                          JOINT RightHandIndexEnd
                          {
                            OFFSET -2.770001 3e-06 8e-06
                            CHANNELS 3 Zrotation Yrotation Xrotation
                          }
                        }
                      }
                    }
                  }
                  JOINT RightHandMiddle1
                  {
                    OFFSET -3.168223 -0.944764 0.411762
                    CHANNELS 3 Zrotation Yrotation Xrotation
                    JOINT RightHandMiddle2
                    {
                      OFFSET -6.266691 -1e-06 -4e-06
                      CHANNELS 3 Zrotation Yrotation Xrotation
                      JOINT RightHandMiddle3
                      {
                        OFFSET -4.348901 0.0 0.0
                        CHANNELS 3 Zrotation Yrotation Xrotation
                        JOINT RightHandMiddle4
                        {
                          OFFSET -3.00024 2e-06 -4e-06
                          CHANNELS 3 Zrotation Yrotation Xrotation
                          JOINT RightHandMiddleEnd
                          {
                            OFFSET -2.321477 -4e-06 -4e-06
                            CHANNELS 3 Zrotation Yrotation Xrotation
                          }
                        }
                      }
                    }
                  }
                  JOINT RightHandRing1
                  {
                    OFFSET -2.885654 0.293261 -0.119232
                    CHANNELS 3 Zrotation Yrotation Xrotation
                    JOINT RightHandRing2
                    {
                      OFFSET -6.032835 -1e-06 -4e-06
                      CHANNELS 3 Zrotation Yrotation Xrotation
                      JOINT RightHandRing3
                      {
                        OFFSET -4.33881 0.0 -4e-06
                        CHANNELS 3 Zrotation Yrotation Xrotation
                        JOINT RightHandRing4
                        {
                          OFFSET -2.654903 -4e-06 -4e-06
                          CHANNELS 3 Zrotation Yrotation Xrotation
                          JOINT RightHandRingEnd
                          {
                            OFFSET -1.935122 0.0 4e-06
                            CHANNELS 3 Zrotation Yrotation Xrotation
                          }
                        }
                      }
                    }
                  }
                  JOINT RightHandPinky1
                  {
                    OFFSET -2.866241 1.503904 -0.60527
                    CHANNELS 3 Zrotation Yrotation Xrotation
                    JOINT RightHandPinky2
                    {
                      OFFSET -5.553177 -2e-06 0.0
                      CHANNELS 3 Zrotation Yrotation Xrotation
                      JOINT RightHandPinky3
                      {
                        OFFSET -3.062664 -1e-06 -4e-06
                        CHANNELS 3 Zrotation Yrotation Xrotation
                        JOINT RightHandPinky4
                        {
                          OFFSET -1.546529 2e-06 4e-06
                          CHANNELS 3 Zrotation Yrotation Xrotation
                          JOINT RightHandPinkyEnd
                          {
                            OFFSET -1.952341 0.0 -4e-06
                            CHANNELS 3 Zrotation Yrotation Xrotation
                          }
                        }
                      }
                    }
                  }
                }
              }
            }
          }
        }
      }
    }
    JOINT LeftLeg
    {
      OFFSET -8.443107 2.567604 10.043214
      CHANNELS 3 Zrotation Yrotation Xrotation
      JOINT LeftShin
      {
        OFFSET 43.229198 1e-06 -1e-06
        CHANNELS 3 Zrotation Yrotation Xrotation
        JOINT LeftFoot
        {
          OFFSET 42.298611 1e-06 1e-06
          CHANNELS 3 Zrotation Yrotation Xrotation
          JOINT LeftToeBase
          {
            OFFSET 14.165858 1e-06 0.0
            CHANNELS 3 Zrotation Yrotation Xrotation
            JOINT LeftToeEnd
            {
              OFFSET 6.7141 -0.234461 0.0
              CHANNELS 3 Zrotation Yrotation Xrotation
            }
          }
        }
      }
    }
    JOINT RightLeg
    {
      OFFSET -8.303923 2.592729 -10.047278
      CHANNELS 3 Zrotation Yrotation Xrotation
      JOINT RightShin
      {
        OFFSET -43.369682 0.0 1e-06
        CHANNELS 3 Zrotation Yrotation Xrotation
        JOINT RightFoot
        {
          OFFSET -42.260784 4e-06 2e-06
          CHANNELS 3 Zrotation Yrotation Xrotation
          JOINT RightToeBase
          {
            OFFSET -14.222245 -2e-06 -1e-06
            CHANNELS 3 Zrotation Yrotation Xrotation
            JOINT RightToeEnd
            {
              OFFSET -6.660062 0.232574 -2e-06
              CHANNELS 3 Zrotation Yrotation Xrotation
            }
          }
        }
      }
    }
  }
}
MOTION
Frames: 4
Frame Time: 0.03333333333333333
0.0 0.0 0.0 0.0 -0.0 0.0 -3.189082 97.766968 -124.859253 88.58297 4.167199 88.310463 1.607772 2.297502 0.162491 -10.226383 -0.064683 0.441102 17.082567 0.994429 -1.645537 26.749586 -4.765367 2.800517 -2.52779 -0.54186 1.302247 -36.967602 -0.214139 1.700554 6e-06 -0.0 -0.0 0.038369 0.013336 -0.002223 0.017694 -0.024251 -0.047384 0.048411 0.041706 0.062678 -126.886505 -70.969536 143.87616 20.813345 -47.549191 7.132318 35.597343 -0.906399 -0.009988 0.623399 5.665072 7.090606 17.636627 -26.322727 52.411182 -19.466656 -14.395596 29.410378 -0.0 -8.774821 -1e-06 16.29277 -18.239563 5.841298 -0.609777 -1.795652 -3.889326 -4.807088 -11.04681 -2.93785 4e-06 -20.976013 1e-06 -5.019968 -25.033554 -4.031878 6e-06 -1e-06 -2e-06 -10.634533 -5.686968 -3.565585 10.573272 -17.922947 -3.1139 2e-06 -13.821206 3e-06 -0.501779 -31.181498 -4.027015 -11.779864 -59.801163 7.947026 -13.982712 -7.150196 -2.875043 13.772728 -8.401491 -3.218239 0.347733 -34.211544 0.771656 -0.963028 -17.73337 2.62102 -0.0 1e-06 -1e-06 -17.346416 -20.095213 -4.201779 21.757555 -1.638375 3.866426 1e-06 -6.338823 0.0 -1.69759 -22.591742 -6.194003 -0.0 -3e-06 -1e-06 38.117222 -77.002289 157.759445 31.97019 -46.674076 10.500306 34.183292 -0.370859 0.024205 3.44233 16.55723 -10.802916 22.182117 -20.375891 49.933304 -16.701815 -16.743532 28.476524 -2e-06 -12.690603 -1e-06 15.96289 -17.512493 2.734355 -0.105918 -1.513856 -4.275881 -5.039041 -5.612873 -2.953555 3e-06 -11.020523 -1e-06 -6.1113 -15.89533 -3.84047 -0.0 -0.0 1e-06 -10.283375 -5.680291 -4.341837 11.028296 -11.302404 -2.372632 -1.384269 -14.238579 -6.320119 -0.625443 -26.924187 -3.8276 -4.29173 -49.502644 -3.235465 -13.708525 -7.363477 -3.720937 18.141148 -14.052739 -3.242674 7e-06 -18.78727 -4e-06 -0.429712 -8.456042 2.555504 0.0 2e-06 -1e-06 -15.923538 -20.094484 -5.47358 30.419214 -7.190824 1.735925 1e-06 -8.162927 -1e-06 -1.861903 -22.861467 -6.167944 -0.0 -2e-06 -3e-06 152.322433 -5.610609 -8.326004 46.538887 0.121204 0.110487 -79.235916 8.689384 -1.753697 -7.140942 1.382141 2.054364 -0.999998 -0.0 -0.0 -0.573543 7.048086 7.757823 26.720444 -0.175906 0.120512 -87.994766 -2.401683 3.397382 -5.149175 0.794582 1.721059 -1.000002 0.0 -0.0 
0.0 0.0 0.0 0.0 -0.0 0.0 -3.361917 97.959068 -125.097748 88.396278 4.766659 88.486954 1.651318 2.45441 0.284817 -10.184012 -0.020069 0.457637 17.331396 1.105443 -1.676231 26.871225 -4.633893 2.727616 -2.541531 -0.561806 1.309079 -37.265369 -0.286589 1.629215 5e-06 -0.0 0.0 0.044091 0.016325 0.008874 0.061612 -0.029998 -0.029125 0.095535 0.054192 0.067436 -126.899765 -70.639656 144.259094 20.777054 -47.324635 7.827289 34.808388 -0.947099 -0.051673 0.297571 4.991611 8.07563 17.636633 -26.322725 52.411179 -19.466663 -14.395596 29.410385 -1e-06 -8.774821 1e-06 16.362951 -18.221626 5.815848 -0.609776 -1.795653 -3.88933 -4.807088 -11.046809 -2.937851 5e-06 -20.976019 -1e-06 -5.019967 -25.033556 -4.031882 7e-06 -1e-06 0.0 -10.634534 -5.686972 -3.565587 10.573274 -17.922951 -3.113902 3e-06 -13.821209 -1e-06 -0.501776 -31.181501 -4.02702 -11.918881 -60.025883 8.15609 -13.982714 -7.150198 -2.875043 13.77273 -8.401494 -3.218244 0.347735 -34.211555 0.77165 -0.963031 -17.73337 2.621021 -1e-06 -0.0 0.0 -17.346416 -20.095219 -4.201785 21.757555 -1.638375 3.866426 2e-06 -6.338824 -1e-06 -1.697588 -22.591745 -6.194007 -0.0 -5e-06 -0.0 37.190269 -76.50869 159.12944 30.872149 -46.864414 9.590977 33.026615 -0.292695 0.076311 2.798041 16.687607 -12.562506 22.182114 -20.375898 49.933334 -16.701813 -16.743525 28.476534 -3e-06 -12.690601 -1e-06 16.111097 -17.642508 2.716971 -0.105919 -1.513855 -4.275882 -5.039041 -5.612873 -2.953558 5e-06 -11.020523 -2e-06 -6.111296 -15.895334 -3.840472 -0.0 0.0 -1e-06 -10.283373 -5.680289 -4.341838 11.028294 -11.302407 -2.372633 -1.384266 -14.238582 -6.320125 -0.625436 -26.924191 -3.8276 -4.304409 -49.732994 -3.231479 -13.708527 -7.363475 -3.720939 18.14115 -14.05274 -3.242673 8e-06 -18.78727 -2e-06 -0.429711 -8.456045 2.555505 1e-06 0.0 0.0 -15.923532 -20.094482 -5.473586 30.41921 -7.190827 1.735927 1e-06 -8.162927 -1e-06 -1.861901 -22.861469 -6.167942 1e-06 -3e-06 -0.0 151.499451 -6.829849 -8.438809 53.510132 0.110664 -0.02459 -82.760063 4.520446 0.620625 -7.259227 1.387186 2.049389 -0.999998 0.0 0.0 0.728052 7.151451 7.26236 25.008917 -0.199107 0.1189 -87.142532 -1.809363 3.270436 -5.437706 0.733075 1.698259 -1.000002 -0.0 -0.0 
0.0 0.0 0.0 0.0 -0.0 0.0 -3.496246 98.199776 -125.18325 88.553307 5.133642 88.640167 1.499162 2.465158 0.36927 -10.227791 -0.009369 0.46123 17.479376 1.072079 -1.71194 26.847633 -4.475419 2.666746 -2.536314 -0.576105 1.271669 -37.452164 -0.329081 1.525722 6e-06 0.0 0.0 0.050482 0.016943 0.034754 0.091012 -0.03256 -0.000186 0.126433 0.058745 0.089617 -126.906433 -70.394676 144.443344 20.398996 -47.134022 8.481706 34.155891 -0.886294 -0.050818 -0.140693 4.324168 9.037112 17.636627 -26.322721 52.411179 -19.46666 -14.395596 29.410378 -1e-06 -8.774819 0.0 16.376423 -18.155773 5.778313 -0.609777 -1.795654 -3.889326 -4.807087 -11.04681 -2.93785 6e-06 -20.976019 -0.0 -5.019969 -25.033556 -4.031878 7e-06 1e-06 -1e-06 -10.634533 -5.686971 -3.565588 10.573276 -17.922949 -3.113901 4e-06 -13.821209 2e-06 -0.501775 -31.181505 -4.027016 -11.889246 -60.080441 8.110127 -13.982714 -7.150195 -2.87504 13.77273 -8.401495 -3.218242 0.347739 -34.211544 0.771652 -0.963028 -17.733372 2.62102 -1e-06 2e-06 0.0 -17.346413 -20.095215 -4.201783 21.757555 -1.638377 3.866426 3e-06 -6.338822 -3e-06 -1.697586 -22.591745 -6.194006 -1e-06 -2e-06 -0.0 36.822968 -76.057884 159.79451 29.474688 -47.546173 8.762312 31.980917 -0.047725 0.145503 2.313265 17.044277 -14.340078 22.18211 -20.375891 49.933315 -16.701811 -16.743528 28.47653 -2e-06 -12.690599 -1e-06 16.267284 -17.795977 2.701341 -0.105919 -1.513855 -4.27588 -5.03904 -5.61287 -2.953555 3e-06 -11.02052 -1e-06 -6.111295 -15.89533 -3.840467 -0.0 0.0 -1e-06 -10.283365 -5.680286 -4.341838 11.02829 -11.302402 -2.372632 -1.384268 -14.23858 -6.320119 -0.625438 -26.924183 -3.827601 -4.341 -49.969337 -3.251492 -13.708521 -7.363474 -3.720939 18.141142 -14.052738 -3.242673 6e-06 -18.78727 2e-06 -0.42971 -8.456043 2.555503 1e-06 -0.0 2e-06 -15.92353 -20.094482 -5.473586 30.419201 -7.190824 1.735927 0.0 -8.162925 -1e-06 -1.861902 -22.861465 -6.167941 -1e-06 -1e-06 -1e-06 151.543274 -7.467698 -8.608006 58.310692 0.092281 -0.107331 -85.081978 1.858372 2.660623 -7.470651 1.423064 2.036289 -0.999999 0.0 -0.0 1.801599 6.883197 6.801672 23.456715 -0.22086 0.130696 -86.32975 -1.201849 3.137801 -5.806774 0.677011 1.67423 -1.000001 0.0 0.0 
0.0 0.0 0.0 0.0 -0.0 0.0 -3.581633 98.511574 -125.184906 89.029396 5.245203 88.754303 1.151643 2.37112 0.43693 -10.351488 -0.013332 0.471095 17.577511 0.928884 -1.774701 26.622871 -4.386681 2.689033 -2.539533 -0.618665 1.067975 -37.42226 -0.385596 1.311837 6e-06 -0.0 0.0 0.0522 0.01784 0.062895 0.103771 -0.02853 0.029929 0.132639 0.0574 0.115305 -127.293892 -70.018333 144.860321 19.655863 -46.765858 8.683711 33.832325 -0.747815 -0.062658 -0.445454 3.814665 9.601746 17.636633 -26.322729 52.411186 -19.466663 -14.395597 29.410393 -1e-06 -8.774822 -0.0 16.362776 -18.140463 5.739569 -0.609776 -1.795653 -3.889329 -4.807087 -11.046811 -2.93785 5e-06 -20.976019 -0.0 -5.019967 -25.033556 -4.03188 6e-06 -1e-06 -1e-06 -10.634535 -5.686972 -3.565591 10.573275 -17.922951 -3.113902 3e-06 -13.821211 3e-06 -0.501776 -31.181505 -4.027017 -11.754276 -60.004189 7.851807 -13.982712 -7.1502 -2.875043 13.77273 -8.401492 -3.21824 0.347735 -34.211555 0.771652 -0.963028 -17.733372 2.62102 -1e-06 1e-06 -1e-06 -17.346416 -20.095217 -4.201783 21.757557 -1.638374 3.866425 1e-06 -6.338824 1e-06 -1.69759 -22.591745 -6.194005 0.0 -4e-06 -2e-06 36.200138 -75.527306 160.589615 27.747808 -48.297474 8.314199 31.064028 0.288888 0.211093 1.92662 17.569347 -16.110672 22.182114 -20.375895 49.933319 -16.701817 -16.743532 28.476532 -2e-06 -12.690603 1e-06 16.341925 -17.907433 2.71751 -0.105919 -1.513855 -4.275883 -5.039041 -5.612872 -2.953556 3e-06 -11.020525 -0.0 -6.1113 -15.895332 -3.840469 0.0 0.0 1e-06 -10.283372 -5.680288 -4.341837 11.028292 -11.302406 -2.372633 -1.384267 -14.238579 -6.32012 -0.625439 -26.924187 -3.8276 -4.365794 -50.115562 -3.280147 -13.708524 -7.363477 -3.720938 18.141151 -14.052739 -3.242676 6e-06 -18.78727 -1e-06 -0.429711 -8.456045 2.555504 1e-06 -1e-06 1e-06 -15.923539 -20.094484 -5.473581 30.419218 -7.190824 1.735925 1e-06 -8.162929 0.0 -1.861905 -22.861473 -6.167941 -1e-06 -2e-06 -2e-06 152.507355 -7.541762 -9.175856 60.038311 0.085167 -0.163245 -85.87999 0.709214 4.334112 -7.777436 1.44712 2.027922 -1.000001 -0.0 0.0 2.545526 6.260522 6.43948 22.12212 -0.210605 0.127087 -85.459137 -0.601624 3.162905 -6.273269 0.637761 1.656465 -1.000002 0.0 0.0 
